<svg width="188.32777709960936px" height="120.8px" xmlns="http://www.w3.org/2000/svg" viewBox="155.83611145019532 14.600000000000001 188.32777709960936 120.8" style="background: rgba(0, 0, 0, 0);" preserveAspectRatio="xMidYMid"><defs><linearGradient id="editing-gradient-gradient" x1="0" x2="1" y1="0.5" y2="0.5" gradientUnits="objectBoundingBox"><stop offset="0" stop-color="#f0f"></stop><stop offset="1" stop-color="#0ff"></stop></linearGradient></defs><g><g transform="translate(189.87339505553246, 97.30500030517578)"><path d="M14.62 0.16L14.62 0.16L14.62 0.16Q11.20-0.45 9.41-0.70L9.41-0.70L9.41-0.70Q7.62-0.96 5.73-0.96L5.73-0.96L5.73-0.96Q3.84-0.96 2.88 0L2.88 0L2.88 0Q1.41-1.09 0.64-4.54L0.64-4.54L0.64-4.54Q0.38-5.50 0.38-7.10L0.38-7.10L0.38-7.10Q0.38-10.56 4.35-13.95L4.35-13.95L24.32-30.34L24.32-30.34Q16.06-31.68 12.74-31.68L12.74-31.68L12.74-31.68Q9.41-31.68 6.34-30.21L6.34-30.21L6.34-30.21Q4.61-33.02 4.61-36.29L4.61-36.29L4.61-36.29Q4.61-39.55 7.01-41.22L7.01-41.22L7.01-41.22Q9.41-42.88 13.44-42.88L13.44-42.88L13.44-42.88Q15.23-42.88 17.15-42.62L17.15-42.62L17.15-42.62Q19.07-42.37 20.99-42.11L20.99-42.11L24.77-41.54L24.77-41.54Q26.62-41.28 29.02-41.28L29.02-41.28L29.02-41.28Q31.42-41.28 34.11-41.92L34.11-41.92L34.11-41.92Q36.67-39.68 36.67-35.97L36.67-35.97L36.67-35.97Q36.67-31.49 33.60-29.06L33.60-29.06L11.84-11.65L11.84-11.65Q16.51-10.37 24.26-10.37L24.26-10.37L24.26-10.37Q28.10-10.37 30.53-12.29L30.53-12.29L30.53-12.29Q31.62-10.88 31.90-9.70L31.90-9.70L31.90-9.70Q32.19-8.51 32.19-6.82L32.19-6.82L32.19-6.82Q32.19-5.12 31.62-3.74L31.62-3.74L31.62-3.74Q31.04-2.37 29.82-1.34L29.82-1.34L29.82-1.34Q27.39 0.77 22.02 0.77L22.02 0.77L22.02 0.77Q18.05 0.77 14.62 0.16ZM66.11 1.28L66.11 1.28L66.11 1.28Q57.92 1.28 57.15-10.37L57.15-10.37L46.14-10.37L46.14-10.37Q44.86-7.42 43.97-4.86L43.97-4.86L42.30 0L33.34 0L53.50-42.24L67.26-42.24L69.95-11.14L69.95-11.14Q70.59-4.42 73.15-2.43L73.15-2.43L73.15-2.43Q71.30 1.28 66.11 1.28ZM51.65-23.17L48.13-15.04L56.96-15.04L56.19-31.49L56.19-33.22L51.65-23.17ZM89.92 0L76.29 0L83.58-38.91L84.29-42.24L97.98-42.24L89.92 0ZM115.90-3.78L115.90-3.78L115.90-3.78Q114.18 1.28 107.52 1.28L107.52 1.28L107.52 1.28Q102.59 1.28 99.20-4.61L99.20-4.61L99.20-4.61Q95.74-10.50 95.10-20.10L95.10-20.10L95.10-20.10Q102.14-32.96 107.01-38.27L107.01-38.27L107.01-38.27Q111.68-43.33 116.54-43.33L116.54-43.33L116.54-43.33Q119.17-43.33 121.06-41.92L121.06-41.92L121.06-41.92Q122.94-40.51 123.39-38.27L123.39-38.27L123.39-38.27Q121.22-37.38 120.19-36.67L120.19-36.67L120.19-36.67Q117.63-34.75 114.18-30.46L114.18-30.46L108.35-23.49L108.35-23.49Q106.94-21.82 106.37-21.06L106.37-21.06L106.37-21.06Q107.33-15.68 110.21-10.37L110.21-10.37L110.21-10.37Q112.96-5.31 115.90-3.78Z" fill="url(#editing-gradient-gradient)"></path></g></g><style>text {
  font-size: 64px;
  font-family: Arial Black;
  dominant-baseline: central;
  text-anchor: middle;
}</style></svg>